<?xml version="1.0" encoding="utf-8"?>
<svg id="master-artboard" viewBox="0 0 1400 980" version="1.1" xmlns="http://www.w3.org/2000/svg" x="0px" y="0px" style="enable-background:new 0 0 1400 980;" width="1400px" height="980px">

<path class="st0" d="M363.1,124.9c-7.3-33.5-35.1-57.4-63.6-68.2c-19.5-7.4-43-9.5-65.6-6c0-0.2,0-0.3-0.1-0.3&#10;&#9;&#9;c-66.6-1.6-108.6,64.2-109,131.6c-0.2,29,0.7,57.6,17,82c16.8,25.2,46,37.8,73.1,43.6c63.3,13.6,147.1-11.5,152.3-93.7&#10;&#9;&#9;C369,185,369.2,153.2,363.1,124.9z M340.9,256.8c-44.2,48-131.1,43.8-180.1,7c-11-8.3-19.8-19.4-26.2-32.1&#10;&#9;&#9;c-3.7-7.4-5.8-15.6-7.4-23.8c-0.9-4.4-1.3-8.8-1.8-13.2c-0.1-2.3-0.2-4.1-0.3-5.5c0.2-3.2,0.5-6.4,0.9-9.6&#10;&#9;&#9;c2.4-22,9.9-42.8,21.5-60.4c-5.6,19-6.2,40-4.6,60.2c-0.5-6.6,0.5-13.5,0-20.2c-1-12.1,7.4-29.8,13.4-40.6&#10;&#9;&#9;c8.7-15.5,21.8-26.7,36.5-34.5c31.8-16.8,73.2-18.2,106.5-7.1c29.8,9.9,54.8,35.5,63.6,68.2C373.5,183.8,367.5,227.9,340.9,256.8z" style="fill: rgb(89, 74, 66);" transform="matrix(1, 0, 0, 1, 2.842170943040401e-14, 7.105427357601002e-15)"/><path class="st0" d="M684.2,124.9c-7.3-33.5-35.1-57.4-63.6-68.2c-19.5-7.4-43-9.5-65.6-6c0-0.2,0-0.3-0.1-0.3&#10;&#9;&#9;c-66.6-1.6-108.6,64.2-109,131.6c-0.2,29,0.7,57.6,17,82c16.8,25.2,46,37.8,73.1,43.6c63.3,13.6,147.1-11.5,152.3-93.7&#10;&#9;&#9;C690.1,185,690.3,153.2,684.2,124.9z M662,256.8c-44.2,48-131.1,43.8-180.1,7c-11-8.3-19.8-19.4-26.2-32.1&#10;&#9;&#9;c-3.7-7.4-5.8-15.6-7.4-23.8c-0.9-4.4-1.3-8.8-1.8-13.2c-0.1-2.3-0.2-4.1-0.3-5.5c0.2-3.2,0.5-6.4,0.9-9.6&#10;&#9;&#9;c2.4-22,9.9-42.8,21.5-60.4c-5.6,19-6.2,40-4.6,60.2c-0.5-6.6,0.5-13.5,0-20.2c-1-12.1,7.4-29.8,13.4-40.6&#10;&#9;&#9;c8.7-15.5,21.8-26.7,36.5-34.5c31.8-16.8,73.2-18.2,106.5-7.1c29.8,9.9,54.8,35.5,63.6,68.2C694.6,183.8,688.6,227.9,662,256.8z" style="fill: rgb(89, 74, 66);" transform="matrix(1, 0, 0, 1, 2.842170943040401e-14, 7.105427357601002e-15)"/><path class="st0" d="M1005.3,124.9c-7.3-33.5-35.1-57.4-63.6-68.2c-19.5-7.4-43-9.5-65.6-6c0-0.2,0-0.3-0.1-0.3&#10;&#9;&#9;c-66.6-1.6-108.6,64.2-109,131.6c-0.2,29,0.7,57.6,17,82c16.8,25.2,46,37.8,73.1,43.6c63.3,13.6,147.1-11.5,152.3-93.7&#10;&#9;&#9;C1011.2,185,1011.4,153.2,1005.3,124.9z M983.1,256.8c-44.2,48-131.1,43.8-180.1,7c-11-8.3-19.8-19.4-26.2-32.1&#10;&#9;&#9;c-3.7-7.4-5.8-15.6-7.4-23.8c-0.9-4.4-1.3-8.8-1.8-13.2c-0.1-2.3-0.2-4.1-0.3-5.5c0.2-3.2,0.5-6.4,0.9-9.6&#10;&#9;&#9;c2.4-22,9.9-42.8,21.5-60.4c-5.6,19-6.2,40-4.6,60.2c-0.5-6.6,0.5-13.5,0-20.2c-1-12.1,7.4-29.8,13.4-40.6&#10;&#9;&#9;c8.7-15.5,21.8-26.7,36.5-34.5c31.8-16.8,73.2-18.2,106.5-7.1c29.8,9.9,54.8,35.5,63.6,68.2C1015.7,183.8,1009.6,227.9,983.1,256.8&#10;&#9;&#9;z" style="fill: rgb(89, 74, 66);" transform="matrix(1, 0, 0, 1, 2.842170943040401e-14, 7.105427357601002e-15)"/><path class="st0" d="M1306.3,124.9c-7.3-33.5-35.1-57.4-63.6-68.2c-19.5-7.4-43-9.5-65.6-6c0-0.2,0-0.3-0.1-0.3&#10;&#9;&#9;c-66.6-1.6-108.6,64.2-109,131.6c-0.2,29,0.7,57.6,17,82c16.8,25.2,46,37.8,73.1,43.6c63.3,13.6,147.1-11.5,152.3-93.7&#10;&#9;&#9;C1312.3,185,1312.5,153.2,1306.3,124.9z M1284.2,256.8c-44.2,48-131.1,43.8-180.1,7c-11-8.3-19.8-19.4-26.2-32.1&#10;&#9;&#9;c-3.7-7.4-5.8-15.6-7.4-23.8c-0.9-4.4-1.3-8.8-1.8-13.2c-0.1-2.3-0.2-4.1-0.3-5.5c0.2-3.2,0.5-6.4,0.9-9.6&#10;&#9;&#9;c2.4-22,9.9-42.8,21.5-60.4c-5.6,19-6.2,40-4.6,60.2c-0.5-6.6,0.5-13.5,0-20.2c-1-12.1,7.4-29.8,13.4-40.6&#10;&#9;&#9;c8.7-15.5,21.8-26.7,36.5-34.5c31.8-16.8,73.2-18.2,106.5-7.1c29.8,9.9,54.8,35.5,63.6,68.2&#10;&#9;&#9;C1316.8,183.8,1310.7,227.9,1284.2,256.8z" style="fill: rgb(89, 74, 66);" transform="matrix(1, 0, 0, 1, 2.842170943040401e-14, 7.105427357601002e-15)"/><path class="st0" d="M363.1,431.4c-7.3-33.5-35.1-57.4-63.6-68.2c-19.5-7.4-43-9.5-65.6-6c0-0.2,0-0.3-0.1-0.3&#10;&#9;&#9;c-66.6-1.6-108.6,64.2-109,131.6c-0.2,29,0.7,57.6,17,82c16.8,25.2,46,37.8,73.1,43.6c63.3,13.6,147.1-11.5,152.3-93.7&#10;&#9;&#9;C369,491.4,369.2,459.7,363.1,431.4z M340.9,563.2c-44.2,48-131.1,43.8-180.1,7c-11-8.3-19.8-19.4-26.2-32.1&#10;&#9;&#9;c-3.7-7.4-5.8-15.6-7.4-23.8c-0.9-4.4-1.3-8.8-1.8-13.2c-0.1-2.3-0.2-4.1-0.3-5.5c0.2-3.2,0.5-6.4,0.9-9.6&#10;&#9;&#9;c2.4-22,9.9-42.8,21.5-60.4c-5.6,19-6.2,40-4.6,60.2c-0.5-6.6,0.5-13.5,0-20.2c-1-12.1,7.4-29.8,13.4-40.6&#10;&#9;&#9;c8.7-15.5,21.8-26.7,36.5-34.5c31.8-16.8,73.2-18.2,106.5-7.1c29.8,9.9,54.8,35.5,63.6,68.2C373.5,490.2,367.5,534.3,340.9,563.2z" style="fill: rgb(89, 74, 66);" transform="matrix(1, 0, 0, 1, 2.842170943040401e-14, 7.105427357601002e-15)"/><path class="st0" d="M684.2,431.4c-7.3-33.5-35.1-57.4-63.6-68.2c-19.5-7.4-43-9.5-65.6-6c0-0.2,0-0.3-0.1-0.3&#10;&#9;&#9;c-66.6-1.6-108.6,64.2-109,131.6c-0.2,29,0.7,57.6,17,82c16.8,25.2,46,37.8,73.1,43.6c63.3,13.6,147.1-11.5,152.3-93.7&#10;&#9;&#9;C690.1,491.4,690.3,459.7,684.2,431.4z M662,563.2c-44.2,48-131.1,43.8-180.1,7c-11-8.3-19.8-19.4-26.2-32.1&#10;&#9;&#9;c-3.7-7.4-5.8-15.6-7.4-23.8c-0.9-4.4-1.3-8.8-1.8-13.2c-0.1-2.3-0.2-4.1-0.3-5.5c0.2-3.2,0.5-6.4,0.9-9.6&#10;&#9;&#9;c2.4-22,9.9-42.8,21.5-60.4c-5.6,19-6.2,40-4.6,60.2c-0.5-6.6,0.5-13.5,0-20.2c-1-12.1,7.4-29.8,13.4-40.6&#10;&#9;&#9;c8.7-15.5,21.8-26.7,36.5-34.5c31.8-16.8,73.2-18.2,106.5-7.1c29.8,9.9,54.8,35.5,63.6,68.2C694.6,490.2,688.6,534.3,662,563.2z" style="fill: rgb(89, 74, 66);" transform="matrix(1, 0, 0, 1, 2.842170943040401e-14, 7.105427357601002e-15)"/><path class="st0" d="M1005.3,431.4c-7.3-33.5-35.1-57.4-63.6-68.2c-19.5-7.4-43-9.5-65.6-6c0-0.2,0-0.3-0.1-0.3&#10;&#9;&#9;c-66.6-1.6-108.6,64.2-109,131.6c-0.2,29,0.7,57.6,17,82c16.8,25.2,46,37.8,73.1,43.6c63.3,13.6,147.1-11.5,152.3-93.7&#10;&#9;&#9;C1011.2,491.4,1011.4,459.7,1005.3,431.4z M983.1,563.2c-44.2,48-131.1,43.8-180.1,7c-11-8.3-19.8-19.4-26.2-32.1&#10;&#9;&#9;c-3.7-7.4-5.8-15.6-7.4-23.8c-0.9-4.4-1.3-8.8-1.8-13.2c-0.1-2.3-0.2-4.1-0.3-5.5c0.2-3.2,0.5-6.4,0.9-9.6&#10;&#9;&#9;c2.4-22,9.9-42.8,21.5-60.4c-5.6,19-6.2,40-4.6,60.2c-0.5-6.6,0.5-13.5,0-20.2c-1-12.1,7.4-29.8,13.4-40.6&#10;&#9;&#9;c8.7-15.5,21.8-26.7,36.5-34.5c31.8-16.8,73.2-18.2,106.5-7.1c29.8,9.9,54.8,35.5,63.6,68.2C1015.7,490.2,1009.6,534.3,983.1,563.2&#10;&#9;&#9;z" style="fill: rgb(89, 74, 66);" transform="matrix(1, 0, 0, 1, 2.842170943040401e-14, 7.105427357601002e-15)"/><path class="st0" d="M1306.3,431.4c-7.3-33.5-35.1-57.4-63.6-68.2c-19.5-7.4-43-9.5-65.6-6c0-0.2,0-0.3-0.1-0.3&#10;&#9;&#9;c-66.6-1.6-108.6,64.2-109,131.6c-0.2,29,0.7,57.6,17,82c16.8,25.2,46,37.8,73.1,43.6c63.3,13.6,147.1-11.5,152.3-93.7&#10;&#9;&#9;C1312.3,491.4,1312.5,459.7,1306.3,431.4z M1284.2,563.2c-44.2,48-131.1,43.8-180.1,7c-11-8.3-19.8-19.4-26.2-32.1&#10;&#9;&#9;c-3.7-7.4-5.8-15.6-7.4-23.8c-0.9-4.4-1.3-8.8-1.8-13.2c-0.1-2.3-0.2-4.1-0.3-5.5c0.2-3.2,0.5-6.4,0.9-9.6&#10;&#9;&#9;c2.4-22,9.9-42.8,21.5-60.4c-5.6,19-6.2,40-4.6,60.2c-0.5-6.6,0.5-13.5,0-20.2c-1-12.1,7.4-29.8,13.4-40.6&#10;&#9;&#9;c8.7-15.5,21.8-26.7,36.5-34.5c31.8-16.8,73.2-18.2,106.5-7.1c29.8,9.9,54.8,35.5,63.6,68.2&#10;&#9;&#9;C1316.8,490.2,1310.7,534.3,1284.2,563.2z" style="fill: rgb(89, 74, 66);" transform="matrix(1, 0, 0, 1, 2.842170943040401e-14, 7.105427357601002e-15)"/><path class="st0" d="M363.1,737.8c-7.3-33.5-35.1-57.4-63.6-68.2c-19.5-7.4-43-9.5-65.6-6c0-0.2,0-0.3-0.1-0.3&#10;&#9;&#9;c-66.6-1.6-108.6,64.2-109,131.6c-0.2,29,0.7,57.6,17,82c16.8,25.2,46,37.8,73.1,43.6c63.3,13.6,147.1-11.5,152.3-93.7&#10;&#9;&#9;C369,797.8,369.2,766.1,363.1,737.8z M340.9,869.6c-44.2,48-131.1,43.8-180.1,7c-11-8.3-19.8-19.4-26.2-32.1&#10;&#9;&#9;c-3.7-7.4-5.8-15.6-7.4-23.8c-0.9-4.4-1.3-8.8-1.8-13.2c-0.1-2.3-0.2-4.1-0.3-5.5c0.2-3.2,0.5-6.4,0.9-9.6&#10;&#9;&#9;c2.4-22,9.9-42.8,21.5-60.4c-5.6,19-6.2,40-4.6,60.2c-0.5-6.6,0.5-13.5,0-20.2c-1-12.1,7.4-29.8,13.4-40.6&#10;&#9;&#9;c8.7-15.5,21.8-26.7,36.5-34.5c31.8-16.8,73.2-18.2,106.5-7.1c29.8,9.9,54.8,35.5,63.6,68.2C373.5,796.6,367.5,840.7,340.9,869.6z" style="fill: rgb(89, 74, 66);" transform="matrix(1, 0, 0, 1, 2.842170943040401e-14, 7.105427357601002e-15)"/><path class="st0" d="M684.2,737.8c-7.3-33.5-35.1-57.4-63.6-68.2c-19.5-7.4-43-9.5-65.6-6c0-0.2,0-0.3-0.1-0.3&#10;&#9;&#9;c-66.6-1.6-108.6,64.2-109,131.6c-0.2,29,0.7,57.6,17,82c16.8,25.2,46,37.8,73.1,43.6c63.3,13.6,147.1-11.5,152.3-93.7&#10;&#9;&#9;C690.1,797.8,690.3,766.1,684.2,737.8z M662,869.6c-44.2,48-131.1,43.8-180.1,7c-11-8.3-19.8-19.4-26.2-32.1&#10;&#9;&#9;c-3.7-7.4-5.8-15.6-7.4-23.8c-0.9-4.4-1.3-8.8-1.8-13.2c-0.1-2.3-0.2-4.1-0.3-5.5c0.2-3.2,0.5-6.4,0.9-9.6&#10;&#9;&#9;c2.4-22,9.9-42.8,21.5-60.4c-5.6,19-6.2,40-4.6,60.2c-0.5-6.6,0.5-13.5,0-20.2c-1-12.1,7.4-29.8,13.4-40.6&#10;&#9;&#9;c8.7-15.5,21.8-26.7,36.5-34.5c31.8-16.8,73.2-18.2,106.5-7.1c29.8,9.9,54.8,35.5,63.6,68.2C694.6,796.6,688.6,840.7,662,869.6z" style="fill: rgb(89, 74, 66);" transform="matrix(1, 0, 0, 1, 2.842170943040401e-14, 7.105427357601002e-15)"/><path class="st0" d="M1005.3,737.8c-7.3-33.5-35.1-57.4-63.6-68.2c-19.5-7.4-43-9.5-65.6-6c0-0.2,0-0.3-0.1-0.3&#10;&#9;&#9;c-66.6-1.6-108.6,64.2-109,131.6c-0.2,29,0.7,57.6,17,82c16.8,25.2,46,37.8,73.1,43.6c63.3,13.6,147.1-11.5,152.3-93.7&#10;&#9;&#9;C1011.2,797.8,1011.4,766.1,1005.3,737.8z M983.1,869.6c-44.2,48-131.1,43.8-180.1,7c-11-8.3-19.8-19.4-26.2-32.1&#10;&#9;&#9;c-3.7-7.4-5.8-15.6-7.4-23.8c-0.9-4.4-1.3-8.8-1.8-13.2c-0.1-2.3-0.2-4.1-0.3-5.5c0.2-3.2,0.5-6.4,0.9-9.6&#10;&#9;&#9;c2.4-22,9.9-42.8,21.5-60.4c-5.6,19-6.2,40-4.6,60.2c-0.5-6.6,0.5-13.5,0-20.2c-1-12.1,7.4-29.8,13.4-40.6&#10;&#9;&#9;c8.7-15.5,21.8-26.7,36.5-34.5c31.8-16.8,73.2-18.2,106.5-7.1c29.8,9.9,54.8,35.5,63.6,68.2C1015.7,796.6,1009.6,840.7,983.1,869.6&#10;&#9;&#9;z" style="fill: rgb(89, 74, 66);" transform="matrix(1, 0, 0, 1, 2.842170943040401e-14, 7.105427357601002e-15)"/><path class="st0" d="M1306.3,737.8c-7.3-33.5-35.1-57.4-63.6-68.2c-19.5-7.4-43-9.5-65.6-6c0-0.2,0-0.3-0.1-0.3&#10;&#9;&#9;c-66.6-1.6-108.6,64.2-109,131.6c-0.2,29,0.7,57.6,17,82c16.8,25.2,46,37.8,73.1,43.6c63.3,13.6,147.1-11.5,152.3-93.7&#10;&#9;&#9;C1312.3,797.8,1312.5,766.1,1306.3,737.8z M1284.2,869.6c-44.2,48-131.1,43.8-180.1,7c-11-8.3-19.8-19.4-26.2-32.1&#10;&#9;&#9;c-3.7-7.4-5.8-15.6-7.4-23.8c-0.9-4.4-1.3-8.8-1.8-13.2c-0.1-2.3-0.2-4.1-0.3-5.5c0.2-3.2,0.5-6.4,0.9-9.6&#10;&#9;&#9;c2.4-22,9.9-42.8,21.5-60.4c-5.6,19-6.2,40-4.6,60.2c-0.5-6.6,0.5-13.5,0-20.2c-1-12.1,7.4-29.8,13.4-40.6&#10;&#9;&#9;c8.7-15.5,21.8-26.7,36.5-34.5c31.8-16.8,73.2-18.2,106.5-7.1c29.8,9.9,54.8,35.5,63.6,68.2&#10;&#9;&#9;C1316.8,796.6,1310.7,840.7,1284.2,869.6z" style="fill: rgb(89, 74, 66);" transform="matrix(1, 0, 0, 1, 2.842170943040401e-14, 7.105427357601002e-15)"/><path class="st0" d="M305,180.3c-25.9-21.1-53.2-40.3-81.7-57.7c-8.4-5.1-9.5,5.7-2.9,9.8c24.6,15,48.2,31.5,70.8,49.4&#10;&#9;&#9;c-24,12.8-48.1,25.7-72.1,38.5c-0.2-22.8-0.3-45.7-0.2-68.5c0.6-0.4,1-1.1,1.1-2.1c0.1-0.6,0.2-1.3,0.3-1.9c0.5-2.7-1-5.7-3.3-7.3&#10;&#9;&#9;c-0.5-0.4-1.1-0.7-1.6-1.1c-2.9-2-9.5-4.1-9.6,1.7c-0.2,29.5-0.1,59,0.3,88.5c0.1,4.6,6.8,10,11.2,7.6&#10;&#9;&#9;c29.7-15.9,59.5-31.8,89.2-47.7C310.6,187.5,307.3,182.2,305,180.3z" style="fill: rgb(89, 74, 66);" transform="matrix(0.9999999999999999, 0, 0, 0.9999999999999999, 0, -2.842170943040401e-14)"/><path class="st0" d="M547.9,139.2c0.1-4.8-14.6-3.8-14.7,1.6c-0.7,29.6-0.8,59.2-0.3,88.8c0.1,4.9,14.8,3.7,14.7-1.6&#10;&#9;&#9;C547.1,198.4,547.2,168.8,547.9,139.2z" style="fill: rgb(89, 74, 66);" transform="matrix(1, 0, 0, 1, 2.842170943040401e-14, 7.105427357601002e-15)"/><path class="st0" d="M574,141v97c0,6.5,14.3,3.4,14.3-1.9v-97C588.3,132.5,574,135.6,574,141z" style="fill: rgb(89, 74, 66);" transform="matrix(1, 0, 0, 1, 2.842170943040401e-14, 7.105427357601002e-15)"/><path class="st0" d="M950.8,135.8c-0.5-4.6-4.9-6.9-9.2-6.8c-26.3,0.7-52.6,0.3-78.9-1.2c-9.6-0.5-8.5,11.3,0.1,11.8&#10;&#9;&#9;c24.7,1.3,49.4,1.8,74.1,1.3c2.3,27,1.2,54-3.4,80.7c-0.5,2.7-37.3,1.4-40.8,1.6c-13.1,0.5-26.1,1.8-39.1,3.4&#10;&#9;&#9;c0-27.3-0.1-54.7-0.1-82c0-7.4-14.5-9.9-14.5-1.7c0,30,0.1,60,0.1,90c0,4.3,5.3,7.3,9.2,6.8c17.6-2.5,35.3-4.1,53.1-4.8&#10;&#9;&#9;c13.3-0.5,31,3.7,43-2.7c3.5-1.9,3.7-8.6,4.2-11.9c1.5-9.3,2.6-18.6,3.4-28.1C953.4,173.4,952.8,154.5,950.8,135.8z" style="fill: rgb(89, 74, 66);" transform="matrix(1, 0, 0, 1, 2.842170943040401e-14, 7.105427357601002e-15)"/><path class="st0" d="M1190.1,137.7c-5.5,1,7.5,2.3,9.5,1.9c12.1-2.1,23.2,10.3,28.5,20.6c4.6,8.8,5.2,19.4,4.2,29.3&#10;&#9;&#9;c-2.7,26.2-28.6,48-52.4,41.6c-45.9-12.4-32.3-75.5,4.4-89.2c3.2,0,6.3-0.4,6.3-1.1c0-0.1,0-0.2,0-0.2c0-0.1-0.1-0.2-0.2-0.4&#10;&#9;&#9;c-1.9-4.6-17.3-0.4-19.6,0.6c-14.1,5.8-24.6,17-30.7,32.1c-14.7,36.5,16.1,60.9,46,61.8c28.9,0.9,56.5-13.7,60.1-48.5&#10;&#9;&#9;C1249.7,150.3,1217.9,132.8,1190.1,137.7z" style="fill: rgb(89, 74, 66);" transform="matrix(1, 0, 0, 1, 2.842170943040401e-14, 7.105427357601002e-15)"/><path class="st0" d="M268.3,451.8c-0.1-6.3,11.5-9.7,11.6-2.3c0.5,29.6,0.4,59.2-0.4,88.8c-0.2,6.3-11.7,9.6-11.6,2.3&#10;&#9;&#9;C268.7,511,268.8,481.4,268.3,451.8z" style="fill: rgb(89, 74, 66);" transform="matrix(1, 0, 0, 1, 2.842170943040401e-14, 7.105427357601002e-15)"/><path class="st0" d="M201.9,471.6l31.2-30.4c2.4-2.4,13,0,11.9,1c-8.1,7.9-16.2,15.8-24.3,23.7c-4.9,4.8-22.7,16.7-17.3,23.8&#10;&#9;&#9;c10.7,13.8,23.3,26.6,35.6,39.4c0.2-9.7,0.4-19.4,0.6-29c0.2-7.8,0.3-15.6,0.5-23.3c0.1-5.9,2.5-16.7-1.1-22&#10;&#9;&#9;c-2.1-0.7-2.9-1.6,0.9-2.1l1.6-0.2c2.1-0.3,7.5-0.9,9,1.1c3.2,4.1,2.1,9,2,14c-0.2,7.8-0.3,15.6-0.5,23.3&#10;&#9;&#9;c-0.4,17.1-0.7,34.2-1.1,51.3c-0.1,2.8-10.7,1.9-12.1,0.4c-16.3-17.8-34.3-35-49.1-54.1C185.9,483.1,199.3,474.2,201.9,471.6z" style="fill: rgb(89, 74, 66);" transform="matrix(1, 0, 0, 1, 2.842170943040401e-14, 7.105427357601002e-15)"/><path class="st0" d="M613.5,830c6.7-0.1,10.2,12.1,2.4,12.2c-31.2,0.5-62.4,0.4-93.6-0.4c-6.7-0.2-10.2-12.4-2.4-12.2&#10;&#9;&#9;C551.1,830.4,582.3,830.5,613.5,830z" style="fill: rgb(89, 74, 66);" transform="matrix(1, 0, 0, 1, 2.842170943040401e-14, 7.105427357601002e-15)"/><path class="st0" d="M592.6,760l32.1,32.9c2.5,2.5,0,13.7-1.1,12.5c-8.3-8.5-16.6-17-25-25.6c-5-5.1-17.6-23.9-25-18.2&#10;&#9;&#9;c-14.6,11.3-28.1,24.6-41.6,37.6c10.2,0.2,20.4,0.4,30.6,0.6c8.2,0.2,16.4,0.3,24.6,0.5c6.2,0.1,17.6,2.6,23.1-1.1&#10;&#9;&#9;c0.7-2.2,1.6-3.1,2.3,1l0.3,1.7c0.3,2.2,0.9,7.9-1.2,9.5c-4.3,3.4-9.5,2.2-14.7,2.1c-8.2-0.2-16.4-0.3-24.6-0.5&#10;&#9;&#9;c-18-0.4-36.1-0.7-54.1-1.1c-3-0.1-2-11.3-0.4-12.8c18.8-17.1,36.9-36.2,57.1-51.7C580.5,743.1,589.8,757.2,592.6,760z" style="fill: rgb(89, 74, 66);" transform="matrix(1, 0, 0, 1, 2.842170943040401e-14, 7.105427357601002e-15)"/><path class="st0" d="M1173.7,451.8c0.1-6.3-11.5-9.7-11.6-2.3c-0.5,29.6-0.4,59.2,0.4,88.8c0.2,6.3,11.7,9.6,11.6,2.3&#10;&#9;&#9;C1173.3,511,1173.2,481.4,1173.7,451.8z" style="fill: rgb(89, 74, 66);" transform="matrix(1, 0, 0, 1, 2.842170943040401e-14, 7.105427357601002e-15)"/><path class="st0" d="M1240.1,471.6l-31.2-30.4c-2.4-2.4-13,0-11.9,1c8.1,7.9,16.2,15.8,24.3,23.7c4.9,4.8,22.7,16.7,17.3,23.8&#10;&#9;&#9;c-10.7,13.8-23.3,26.6-35.6,39.4c-0.2-9.7-0.4-19.4-0.6-29c-0.2-7.8-0.3-15.6-0.5-23.3c-0.1-5.9-2.5-16.7,1.1-22&#10;&#9;&#9;c2.1-0.7,2.9-1.6-0.9-2.1l-1.6-0.2c-2.1-0.3-7.5-0.9-9,1.1c-3.2,4.1-2.1,9-2,14c0.2,7.8,0.3,15.6,0.5,23.3&#10;&#9;&#9;c0.4,17.1,0.7,34.2,1.1,51.3c0.1,2.8,10.7,1.9,12.1,0.4c16.3-17.8,34.3-35,49.1-54.1C1256.2,483.1,1242.7,474.2,1240.1,471.6z" style="fill: rgb(89, 74, 66);" transform="matrix(1, 0, 0, 1, 2.842170943040401e-14, 7.105427357601002e-15)"/><path class="st0" d="M582.1,473.3l31.2-30.4c2.4-2.4,13,0,11.9,1c-8.1,7.9-16.2,15.8-24.3,23.7c-4.9,4.8-22.7,16.7-17.3,23.8&#10;&#9;&#9;c10.7,13.8,23.3,26.6,35.6,39.4c0.2-9.7,0.4-19.4,0.6-29c0.2-7.8,0.3-15.6,0.5-23.3c0.1-5.9,2.5-16.7-1.1-22&#10;&#9;&#9;c-2.1-0.7-2.9-1.6,0.9-2.1l1.6-0.2c2.1-0.3,7.5-0.9,9,1.1c3.2,4.1,2.1,9,2,14c-0.2,7.8-0.3,15.6-0.5,23.3&#10;&#9;&#9;c-0.4,17.1-0.7,34.2-1.1,51.3c-0.1,2.8-10.7,1.9-12.1,0.4c-16.3-17.8-34.3-35-49.1-54.1C566,484.8,579.5,475.9,582.1,473.3z" style="fill: rgb(89, 74, 66);" transform="matrix(1, 0, 0, 1, 2.842170943040401e-14, 7.105427357601002e-15)"/><path class="st0" d="M510.3,472.8l31.9-29.7c2.5-2.3,13,0.3,11.9,1.3c-8.3,7.7-16.5,15.4-24.8,23.1c-5,4.6-23.1,16.2-17.8,23.3&#10;&#9;&#9;c10.3,14.1,22.7,27.2,34.7,40.3c0.4-9.7,0.9-19.3,1.3-29c0.3-7.8,0.7-15.5,1-23.3c0.3-5.9,2.9-16.7-0.5-22c-2.1-0.7-2.9-1.6,1-2.1&#10;&#9;&#9;l1.6-0.2c2.1-0.3,7.5-0.7,9,1.4c3.1,4.2,1.8,9,1.6,14c-0.3,7.8-0.7,15.5-1,23.3c-0.8,17.1-1.5,34.2-2.3,51.3&#10;&#9;&#9;c-0.1,2.8-10.7,1.7-12.1,0.1c-15.8-18.2-33.5-35.9-47.8-55.3C493.9,483.9,507.6,475.4,510.3,472.8z" style="fill: rgb(89, 74, 66);" transform="matrix(1, 0, 0, 1, 2.842170943040401e-14, 7.105427357601002e-15)"/><path class="st0" d="M881.7,473.3l-31.2-30.4c-2.4-2.4-13,0-11.9,1c8.1,7.9,16.2,15.8,24.3,23.7c4.9,4.8,22.7,16.7,17.3,23.8&#10;&#9;&#9;c-10.7,13.8-23.3,26.6-35.6,39.4c-0.2-9.7-0.4-19.4-0.6-29c-0.2-7.8-0.3-15.6-0.5-23.3c-0.1-5.9-2.5-16.7,1.1-22&#10;&#9;&#9;c2.1-0.7,2.9-1.6-0.9-2.1l-1.6-0.2c-2.1-0.3-7.5-0.9-9,1.1c-3.2,4.1-2.1,9-2,14c0.2,7.8,0.3,15.6,0.5,23.3&#10;&#9;&#9;c0.4,17.1,0.7,34.2,1.1,51.3c0.1,2.8,10.7,1.9,12.1,0.4c16.3-17.8,34.3-35,49.1-54.1C897.7,484.8,884.3,475.9,881.7,473.3z" style="fill: rgb(89, 74, 66);" transform="matrix(1, 0, 0, 1, 2.842170943040401e-14, 7.105427357601002e-15)"/><path class="st0" d="M953.5,472.8l-31.9-29.7c-2.5-2.3-13,0.3-11.9,1.3c8.3,7.7,16.5,15.4,24.8,23.1c5,4.6,23.1,16.2,17.8,23.3&#10;&#9;&#9;c-10.3,14.1-22.7,27.2-34.7,40.3c-0.4-9.7-0.9-19.3-1.3-29c-0.3-7.8-0.7-15.5-1-23.3c-0.3-5.9-2.9-16.7,0.5-22&#10;&#9;&#9;c2.1-0.7,2.9-1.6-1-2.1l-1.6-0.2c-2.1-0.3-7.5-0.7-9,1.4c-3.1,4.2-1.8,9-1.6,14c0.3,7.8,0.7,15.5,1,23.3&#10;&#9;&#9;c0.8,17.1,1.5,34.2,2.3,51.3c0.1,2.8,10.7,1.7,12.1,0.1c15.8-18.2,33.5-35.9,47.8-55.3C969.8,483.9,956.2,475.4,953.5,472.8z" style="fill: rgb(89, 74, 66);" transform="matrix(1, 0, 0, 1, 2.842170943040401e-14, 7.105427357601002e-15)"/><path class="st0" d="M200.1,729c-5.8,19.4-4.1,40.3-4.2,60.3c0,20.4-2.2,42,2.7,61.9c1.6,6.4,13.8,5.2,12.3-1.1&#10;&#9;&#9;c-4.6-18.6-2.8-38.4-2.7-57.4c0-20.5-1.9-42.2,4-62.1C214.2,723.9,201.9,722.9,200.1,729z" style="fill: rgb(89, 74, 66);" transform="matrix(1, 0, 0, 1, 2.842170943040401e-14, 7.105427357601002e-15)"/><path class="st0" d="M232,744.6c-0.3-7.2-11.8-4-11.5,2c1.7,35.1,2.4,70.3,3.2,105.4c0.2,7.2,11.6,4,11.5-2&#10;&#9;&#9;C234.5,814.8,233.7,779.7,232,744.6z" style="fill: rgb(89, 74, 66);" transform="matrix(1, 0, 0, 1, 2.842170943040401e-14, 7.105427357601002e-15)"/><path class="st0" d="M258.8,836.9c0-8.2,0-16.3,0-24.5c0-16.3,0-32.6,0-48.9c0-5.1-12.3-5.8-12.3-1c0,14.7,0,29.3,0,44&#10;&#9;&#9;c0,6.5,0,13,0,19.6c0,6.2,1.8,16.3,0.3,23c-0.5,0.3-0.9,0.8-1.1,1.3c-0.1,0.2-0.2,0.4-0.3,0.6c-0.6,1.4,0,2.9,1.3,3.6&#10;&#9;&#9;c0.2,0.1,0.5,0.3,0.7,0.4c2.4,1.4,8.9,2.8,10.4-0.8C260,849,258.8,842.5,258.8,836.9z" style="fill: rgb(89, 74, 66);" transform="matrix(1, 0, 0, 1, 2.842170943040401e-14, 7.105427357601002e-15)"/><path class="st0" d="M280.6,848.4c-1.7-7.8-1-16.4-0.6-24.3c0.7-13.3,1.7-26.1-1-39.3c-0.8-3.8-10.4-10.6-9-3.8&#10;&#9;&#9;c2.5,12.3,1.5,24.6,0.7,37c-0.4,5.7-0.4,11.3-0.2,17c0.1,1.8,0.3,3.6,0.5,5.3c0.2,1.4,0.4,2.8,0.6,4.2c-0.1,1.2,0,2.2,0,2.9&#10;&#9;&#9;c-0.3,0.3-0.4,0.8-0.5,1.4c0,0.3,0,0.5-0.1,0.8c-0.2,3.4,3.8,7.4,6.9,8.1c0.3,0.1,0.7,0.1,1,0.2c0.9,0.2,1.8-0.2,2.2-1.1&#10;&#9;&#9;C282.4,854.1,281.2,851.1,280.6,848.4z" style="fill: rgb(89, 74, 66);" transform="matrix(1, 0, 0, 1, 2.842170943040401e-14, 7.105427357601002e-15)"/><path class="st0" d="M300,836.9c0-11.4,0-22.8,0-34.2c0-3.2-10.7-7.9-10.7-5.3c0,4.6-1.2,53.1-0.3,53.3c-5.9-1.2,3.5,6.3,6.1,6.8&#10;&#9;&#9;c0.4,0.1,0.8,0.2,1.2,0.2c0.7,0.1,1.7,0.4,2.3-0.2C302.3,852.9,300,842.6,300,836.9z" style="fill: rgb(89, 74, 66);" transform="matrix(1, 0, 0, 1, 2.842170943040401e-14, 7.105427357601002e-15)"/><path class="st0" d="M950.5,780.4l-0.5-43.5c0-0.3-4.7,0.7-7.5,2.3c-0.8-1.5-2.5-2.7-4.7-2.5c-23.5,2.3-47,4.5-70.5,6.8l0-0.1&#10;&#9;&#9;c0-0.2-1.1,0-2.4,0.3c-1.1,0.1-2.2,0.2-3.3,0.3c-4.7,0.5-6,5-3.8,7.3c0.1,12.1,0.3,24.1,0.4,36.2c0.2,13.4,1.1,26.9-2.9,39.9&#10;&#9;&#9;c-5.6,17.8-29.2,24-35.5,4.3c-2-6.1-2.9-12.1-0.4-18.2c3.7-9.3,22.4-8.8,29.2-4.8c2.1,1.3,10.1-4.3,8.9-5&#10;&#9;&#9;c-12.7-7.6-32.3,0.6-43.3,8.5c-7,5-6.5,13.5-4.9,21c2.6,11.4,8.4,16.7,20.1,16.2c16.6-0.7,31.6-13.8,36.4-29.1&#10;&#9;&#9;c3.3-10.5,2.1-22.5,2-33.3l-0.2-12.8c1.3,1,2.6,1.6,3.5,1.5c12.4-2.5,24.9-5.1,37.3-7.5c9.7-1.9,21.7-4,32.3-2.7&#10;&#9;&#9;c0.1,5.2,0.1,10.5,0.2,15.7c0.2,13.4,1.1,26.9-2.9,39.9c-5.6,17.8-29.2,24-35.5,4.3c-2-6.1-2.9-12.1-0.4-18.2&#10;&#9;&#9;c3.7-9.3,22.4-8.8,29.2-4.8c2.1,1.3,10.1-4.3,8.9-5c-12.7-7.6-32.3,0.6-43.3,8.5c-7,5-6.5,13.5-4.9,21c2.6,11.4,8.4,16.7,20.1,16.2&#10;&#9;&#9;c16.6-0.7,31.6-13.8,36.4-29.1C951.8,803.3,950.6,791.2,950.5,780.4z M921.8,759.2c-18,0-36.5,5.3-54.3,9.1l-0.2-16.3&#10;&#9;&#9;c22.6-2.2,45.1-4.3,67.7-6.5c0.4,0,0.8,0,1.3,0c1-0.1,2.1-0.3,3.1-0.4c0.4-0.1,0.7-0.1,1-0.2c0.1,5.4,0.1,10.7,0.2,16.1&#10;&#9;&#9;C934.6,758.9,927.4,759.2,921.8,759.2z" style="fill: rgb(89, 74, 66);" transform="matrix(1, 0, 0, 1, 2.842170943040401e-14, 7.105427357601002e-15)"/><path class="st0" d="M1252.8,789.2c-7.2-24.5-31.5-42.6-57.3-36.8c-0.3,0.1,4.7,10.1,8,9.4c11.7-2.6,22.9-0.6,32.8,6.2&#10;&#9;&#9;c11.4,7.7,10.5,25.2,8,36.7c-4.9,21.9-24.5,35.4-45,40.8c-10.9,2.9-22.4,2.6-33.5,1.3c-19-2.3-30.6-16.1-32-35&#10;&#9;&#9;c-1.5-20.8,12.2-51.3,36.8-49.1c0.8,0.1-4-9.2-7.2-9.5c-33.8-3.1-45.3,46.8-33,70.8c14.6,28.7,42,36.8,72.7,31.8&#10;&#9;&#9;C1233.2,850.7,1262.4,821.7,1252.8,789.2z" style="fill: rgb(89, 74, 66);" transform="matrix(1, 0, 0, 1, 2.842170943040401e-14, 7.105427357601002e-15)"/><path class="st0" d="M1188.9,727.7c-0.2-7.1-12.4-6.6-12.2,0.8l1.7,72.7c0.2,7.1,12.4,6.6,12.2-0.8L1188.9,727.7z" style="fill: rgb(89, 74, 66);" transform="matrix(1, 0, 0, 1, 2.842170943040401e-14, 7.105427357601002e-15)"/>
<g transform="matrix(1, 0, 0, 1, 2.842170943040401e-14, 7.105427357601002e-15)">
		<g>
			<g>
				<path class="st1" d="M732.3,937.7c0.8,0,1.6,0.7,1.6,0.7L720,968.2c-1.5,0-5.2,0.2-6.1,0.2c-0.8,0-1.6-0.7-1.6-0.7l-4.8-29.8&#10;&#9;&#9;&#9;&#9;&#9;c2.9,0,6.5-0.2,7.6-0.2c0.8,0,1.6,0.7,1.6,0.7l1.5,14.6c0.1,1.3,0.1,3,0.1,4.8c0.5-2,1-3.9,1.5-5.2l5.8-14.7&#10;&#9;&#9;&#9;&#9;&#9;C728.1,937.9,731.3,937.7,732.3,937.7L732.3,937.7z" style="fill: rgb(155, 133, 121);"/>
			</g>
			<g>
				<path class="st1" d="M746.6,952.4c0,3.2-1.8,5.4-6.3,6.3l-4.7,1c0.4,2,1.6,3,3.8,3c2.6,0,4.4-2,4.4-2s1.3,0.7,1.3,2.3&#10;&#9;&#9;&#9;&#9;&#9;c0,2.7-4.1,5.6-9,5.6c-4.9,0-8.1-3.1-8.1-8.3c0-6,4.3-14.2,11.9-14.2C744,946.1,746.6,948.6,746.6,952.4L746.6,952.4z&#10;&#9;&#9;&#9;&#9;&#9; M738.6,955.5c1-0.3,1.3-1.2,1.3-2.1c0-0.9-0.3-2.2-1.3-2.2c-1.9,0-2.7,3-3,5.3L738.6,955.5z" style="fill: rgb(155, 133, 121);"/>
			</g>
			<g>
				<path class="st1" d="M759.4,946.1c3.8,0,6.7,2,6.7,4.7c0,3.3-4,4.5-4,4.5s-1.2-3.6-3.9-3.6c-1.8,0-2.9,1.8-2.9,5.8&#10;&#9;&#9;&#9;&#9;&#9;c0,3.6,1,5.2,3.3,5.2c2.4,0,3.9-1.6,3.9-1.6s1.3,0.7,1.3,2.2c0,2.6-4,5.3-8.6,5.3c-4.9,0-8-3.1-8-8.2&#10;&#9;&#9;&#9;&#9;&#9;C747.3,954.3,751.7,946.1,759.4,946.1L759.4,946.1z" style="fill: rgb(155, 133, 121);"/>
			</g>
			<g>
				<path class="st1" d="M777.8,941.3c0.9,0,1.5,0.7,1.5,0.7l-0.7,4.5h4.8l-1.1,3.5c-0.4,1.1-0.9,1.7-2,1.7h-2.5l-1.4,8.9&#10;&#9;&#9;&#9;&#9;&#9;c-0.2,1.4,0.1,2.1,1.1,2.1c0.9,0,1.8-0.5,1.8-0.5s1.3,0.7,1.3,2.2c0,2.2-3.1,4.3-7,4.3c-4.1,0-5.8-2.5-5.1-7l1.6-9.9h-2.6&#10;&#9;&#9;&#9;&#9;&#9;l1.1-3.6c0.3-0.9,1.1-1.6,2-1.6h1.3l1.5-4.2C775.2,941.9,777,941.3,777.8,941.3L777.8,941.3z" style="fill: rgb(155, 133, 121);"/>
			</g>
			<g>
				<path class="st1" d="M801.2,952.4c0,3.2-1.8,5.4-6.3,6.3l-4.7,1c0.4,2,1.6,3,3.8,3c2.6,0,4.4-2,4.4-2s1.3,0.7,1.3,2.3&#10;&#9;&#9;&#9;&#9;&#9;c0,2.7-4.1,5.6-9,5.6c-4.9,0-8.1-3.1-8.1-8.3c0-6,4.3-14.2,11.9-14.2C798.6,946.1,801.2,948.6,801.2,952.4L801.2,952.4z&#10;&#9;&#9;&#9;&#9;&#9; M793.2,955.5c1-0.3,1.3-1.2,1.3-2.1c0-0.9-0.3-2.2-1.3-2.2c-1.9,0-2.7,3-3,5.3L793.2,955.5z" style="fill: rgb(155, 133, 121);"/>
			</g>
			<g>
				<path class="st1" d="M820.5,952.4c0,3.2-1.8,5.4-6.3,6.3l-4.7,1c0.4,2,1.6,3,3.8,3c2.6,0,4.4-2,4.4-2s1.3,0.7,1.3,2.3&#10;&#9;&#9;&#9;&#9;&#9;c0,2.7-4.1,5.6-9,5.6c-4.9,0-8.1-3.1-8.1-8.3c0-6,4.3-14.2,11.9-14.2C817.9,946.1,820.5,948.6,820.5,952.4L820.5,952.4z&#10;&#9;&#9;&#9;&#9;&#9; M812.5,955.5c1-0.3,1.3-1.2,1.3-2.1c0-0.9-0.3-2.2-1.3-2.2c-1.9,0-2.7,3-3,5.3L812.5,955.5z" style="fill: rgb(155, 133, 121);"/>
			</g>
			<g>
				<path class="st1" d="M836.3,960.5c0,0,1.6,1.5,1.6,4c0,3.3-2.8,4.2-5.2,4.2c-3.1,0-5.3-1.5-7.6-2.3c-0.6,0.7-1.3,1.5-1.9,2.3&#10;&#9;&#9;&#9;&#9;&#9;c0,0-3.5-0.1-3.5-2.4c0-2.9,4.8-7.8,9.9-13.4c-0.6-0.1-1.2-0.2-1.7-0.2c-2.9,0-4.1,1.5-4.1,1.5s-1.5-1.7-1.4-4&#10;&#9;&#9;&#9;&#9;&#9;c0.2-3.1,3.1-4,5.5-4c2.5,0,4.3,1,6.1,1.7l1.5-1.7c0,0,3.5,0.1,3.5,2.5c0,2.8-4.6,7.6-9.6,13c1.1,0.3,2,0.5,3,0.5&#10;&#9;&#9;&#9;&#9;&#9;C835.1,962.2,836.3,960.5,836.3,960.5L836.3,960.5z" style="fill: rgb(155, 133, 121);"/>
			</g>
			<g>
				<path class="st1" d="M858.7,966.7c-1.2,7.6-6.4,11.4-13,11.4c-4.2,0-7.3-2.2-7.3-4.8c0-1.7,1.4-2.5,1.4-2.5s1.4,1.3,4.2,1.3&#10;&#9;&#9;&#9;&#9;&#9;c2.6,0,6.2-1.1,6.8-5.1l0.5-3.1c-1.8,2.6-4.1,4.6-7.1,4.6c-3.3,0-4.8-2.7-3.9-8.3l0.9-6c0.6-3.7,0.7-6.7,0.7-6.7&#10;&#9;&#9;&#9;&#9;&#9;c2.4-0.4,5.5-1.5,6.6-1.5c0.8,0,1.6,0.7,1.6,0.7l-1.2,7.5l-1.1,6.9c-0.1,0.6,0,1,0.6,1c2.8,0,4.3-7.9,4.3-7.9&#10;&#9;&#9;&#9;&#9;&#9;c0.6-3.7,0.7-6.7,0.7-6.7c2.4-0.4,5.5-1.5,6.6-1.5c0.9,0,1.6,0.7,1.6,0.7l-1.2,7.5L858.7,966.7z" style="fill: rgb(155, 133, 121);"/>
			</g>
		</g>
		<g>
			<path class="st1" d="M538.1,947.4h7.4c1.7,0,3,0.1,3.8,0.4c1.2,0.3,2.2,1,3,1.9c0.8,0.9,1.5,2,1.9,3.3c0.4,1.3,0.7,2.9,0.7,4.8&#10;&#9;&#9;&#9;&#9;c0,1.7-0.2,3.1-0.6,4.3c-0.5,1.5-1.2,2.7-2.2,3.6c-0.7,0.7-1.7,1.2-2.9,1.6c-0.9,0.3-2.1,0.4-3.6,0.4h-7.7V947.4z M542.2,950.8&#10;&#9;&#9;&#9;&#9;v13.4h3c1.1,0,2-0.1,2.5-0.2c0.7-0.2,1.2-0.4,1.6-0.8c0.4-0.4,0.8-1,1.1-1.9c0.3-0.9,0.4-2.1,0.4-3.7c0-1.6-0.1-2.8-0.4-3.6&#10;&#9;&#9;&#9;&#9;s-0.7-1.5-1.2-2s-1.1-0.8-1.9-0.9c-0.6-0.1-1.7-0.2-3.3-0.2H542.2z" style="fill: rgb(155, 133, 121);"/>
			<path class="st1" d="M566.4,962.9l3.9,0.6c-0.5,1.4-1.3,2.5-2.3,3.2c-1.1,0.7-2.4,1.1-4,1.1c-2.5,0-4.4-0.8-5.6-2.5&#10;&#9;&#9;&#9;&#9;c-1-1.3-1.4-3-1.4-5c0-2.4,0.6-4.3,1.9-5.7c1.3-1.4,2.9-2.1,4.8-2.1c2.2,0,3.9,0.7,5.1,2.2c1.3,1.4,1.9,3.6,1.8,6.6h-9.7&#10;&#9;&#9;&#9;&#9;c0,1.1,0.3,2,0.9,2.7c0.6,0.6,1.3,1,2.2,1c0.6,0,1.1-0.2,1.5-0.5C565.8,964.1,566.2,963.6,566.4,962.9z M566.6,959&#10;&#9;&#9;&#9;&#9;c0-1.1-0.3-2-0.9-2.6c-0.6-0.6-1.2-0.9-2-0.9c-0.8,0-1.5,0.3-2.1,0.9c-0.6,0.6-0.8,1.4-0.8,2.5H566.6z" style="fill: rgb(155, 133, 121);"/>
			<path class="st1" d="M571.6,963.4l3.9-0.6c0.2,0.8,0.5,1.3,1,1.7c0.5,0.4,1.2,0.6,2.1,0.6c1,0,1.8-0.2,2.3-0.6&#10;&#9;&#9;&#9;&#9;c0.3-0.3,0.5-0.6,0.5-1c0-0.3-0.1-0.5-0.3-0.7c-0.2-0.2-0.6-0.4-1.3-0.5c-3.1-0.7-5.1-1.3-5.9-1.9c-1.2-0.8-1.7-1.9-1.7-3.3&#10;&#9;&#9;&#9;&#9;c0-1.3,0.5-2.3,1.5-3.2c1-0.9,2.6-1.3,4.7-1.3c2,0,3.5,0.3,4.5,1c1,0.7,1.6,1.6,2,2.9l-3.6,0.7c-0.2-0.6-0.5-1-0.9-1.3&#10;&#9;&#9;&#9;&#9;c-0.4-0.3-1.1-0.5-1.9-0.5c-1,0-1.7,0.1-2.2,0.4c-0.3,0.2-0.4,0.5-0.4,0.8c0,0.3,0.1,0.5,0.4,0.7c0.3,0.3,1.6,0.6,3.6,1.1&#10;&#9;&#9;&#9;&#9;c2.1,0.5,3.5,1,4.3,1.7c0.8,0.7,1.2,1.6,1.2,2.9c0,1.3-0.6,2.5-1.7,3.5c-1.1,1-2.8,1.4-5,1.4c-2,0-3.6-0.4-4.7-1.2&#10;&#9;&#9;&#9;&#9;C572.8,965.8,572,964.7,571.6,963.4z" style="fill: rgb(155, 133, 121);"/>
			<path class="st1" d="M588.1,950.9v-3.6h3.9v3.6H588.1z M588.1,967.5v-14.6h3.9v14.6H588.1z" style="fill: rgb(155, 133, 121);"/>
			<path class="st1" d="M595,968.5l4.4,0.5c0.1,0.5,0.2,0.9,0.5,1.1c0.4,0.3,0.9,0.4,1.7,0.4c1,0,1.8-0.2,2.3-0.5&#10;&#9;&#9;&#9;&#9;c0.3-0.2,0.6-0.5,0.8-1c0.1-0.3,0.2-0.9,0.2-1.8v-2.1c-1.2,1.6-2.6,2.4-4.4,2.4c-2,0-3.5-0.8-4.7-2.5c-0.9-1.3-1.3-2.9-1.3-4.9&#10;&#9;&#9;&#9;&#9;c0-2.4,0.6-4.3,1.8-5.6c1.2-1.3,2.6-1.9,4.4-1.9c1.8,0,3.3,0.8,4.5,2.4v-2.1h3.6V966c0,1.7-0.1,3-0.4,3.9c-0.3,0.9-0.7,1.5-1.2,2&#10;&#9;&#9;&#9;&#9;c-0.5,0.5-1.2,0.9-2.1,1.1c-0.9,0.3-1.9,0.4-3.3,0.4c-2.5,0-4.2-0.4-5.3-1.3c-1-0.8-1.6-1.9-1.6-3.2&#10;&#9;&#9;&#9;&#9;C595,968.8,595,968.7,595,968.5z M598.5,959.9c0,1.6,0.3,2.7,0.9,3.4c0.6,0.7,1.3,1.1,2.2,1.1c0.9,0,1.7-0.4,2.4-1.1&#10;&#9;&#9;&#9;&#9;c0.7-0.7,1-1.8,1-3.3c0-1.5-0.3-2.6-0.9-3.4c-0.6-0.7-1.4-1.1-2.4-1.1c-0.9,0-1.7,0.4-2.3,1.1&#10;&#9;&#9;&#9;&#9;C598.8,957.3,598.5,958.4,598.5,959.9z" style="fill: rgb(155, 133, 121);"/>
			<path class="st1" d="M625.3,967.5h-3.9v-7.5c0-1.6-0.1-2.6-0.2-3.1c-0.2-0.5-0.4-0.8-0.8-1.1c-0.4-0.3-0.8-0.4-1.3-0.4&#10;&#9;&#9;&#9;&#9;c-0.7,0-1.3,0.2-1.8,0.6c-0.5,0.4-0.9,0.9-1.1,1.5c-0.2,0.6-0.3,1.7-0.3,3.4v6.6H612v-14.6h3.6v2.1c1.3-1.7,2.9-2.5,4.8-2.5&#10;&#9;&#9;&#9;&#9;c0.9,0,1.6,0.2,2.3,0.5c0.7,0.3,1.2,0.7,1.6,1.2c0.4,0.5,0.6,1,0.8,1.6c0.1,0.6,0.2,1.5,0.2,2.6V967.5z" style="fill: rgb(155, 133, 121);"/>
			<path class="st1" d="M637.2,962.9l3.9,0.6c-0.5,1.4-1.3,2.5-2.3,3.2c-1.1,0.7-2.4,1.1-4,1.1c-2.5,0-4.4-0.8-5.6-2.5&#10;&#9;&#9;&#9;&#9;c-1-1.3-1.4-3-1.4-5c0-2.4,0.6-4.3,1.9-5.7c1.3-1.4,2.9-2.1,4.8-2.1c2.2,0,3.9,0.7,5.1,2.2c1.3,1.4,1.9,3.6,1.8,6.6h-9.7&#10;&#9;&#9;&#9;&#9;c0,1.1,0.3,2,0.9,2.7c0.6,0.6,1.3,1,2.2,1c0.6,0,1.1-0.2,1.5-0.5C636.6,964.1,636.9,963.6,637.2,962.9z M637.4,959&#10;&#9;&#9;&#9;&#9;c0-1.1-0.3-2-0.9-2.6c-0.6-0.6-1.2-0.9-2-0.9c-0.8,0-1.5,0.3-2.1,0.9c-0.6,0.6-0.8,1.4-0.8,2.5H637.4z" style="fill: rgb(155, 133, 121);"/>
			<path class="st1" d="M657.2,967.5h-3.6v-2.1c-0.6,0.8-1.3,1.5-2.1,1.9c-0.8,0.4-1.6,0.6-2.5,0.6c-1.7,0-3.1-0.7-4.3-2&#10;&#9;&#9;&#9;&#9;c-1.2-1.4-1.8-3.2-1.8-5.7c0-2.5,0.6-4.4,1.7-5.7c1.2-1.3,2.6-1.9,4.4-1.9c1.6,0,3,0.7,4.2,2v-7.3h3.9V967.5z M646.9,959.9&#10;&#9;&#9;&#9;&#9;c0,1.6,0.2,2.7,0.6,3.4c0.6,1,1.5,1.5,2.6,1.5c0.9,0,1.6-0.4,2.3-1.1c0.6-0.8,0.9-1.9,0.9-3.4c0-1.7-0.3-2.9-0.9-3.6&#10;&#9;&#9;&#9;&#9;c-0.6-0.7-1.4-1.1-2.3-1.1c-0.9,0-1.7,0.4-2.3,1.1C647.2,957.4,646.9,958.5,646.9,959.9z" style="fill: rgb(155, 133, 121);"/>
			<path class="st1" d="M667.6,967.5v-20.2h3.9v7.3c1.2-1.4,2.6-2,4.2-2c1.8,0,3.3,0.6,4.4,1.9c1.2,1.3,1.7,3.1,1.7,5.6&#10;&#9;&#9;&#9;&#9;c0,2.5-0.6,4.4-1.8,5.8c-1.2,1.3-2.6,2-4.3,2c-0.8,0-1.7-0.2-2.5-0.6c-0.8-0.4-1.5-1-2.1-1.9v2.1H667.6z M671.4,959.9&#10;&#9;&#9;&#9;&#9;c0,1.5,0.2,2.6,0.7,3.4c0.7,1,1.6,1.5,2.7,1.5c0.9,0,1.6-0.4,2.2-1.1c0.6-0.7,0.9-1.9,0.9-3.4c0-1.7-0.3-2.9-0.9-3.6&#10;&#9;&#9;&#9;&#9;c-0.6-0.7-1.4-1.1-2.3-1.1c-0.9,0-1.7,0.4-2.3,1.1C671.7,957.3,671.4,958.4,671.4,959.9z" style="fill: rgb(155, 133, 121);"/>
			<path class="st1" d="M682.6,952.9h4.1l3.5,10.4l3.4-10.4h4l-5.2,14.1l-0.9,2.5c-0.3,0.9-0.7,1.5-1,2c-0.3,0.4-0.7,0.8-1.1,1.1&#10;&#9;&#9;&#9;&#9;c-0.4,0.3-0.9,0.5-1.5,0.7c-0.6,0.2-1.2,0.2-2,0.2c-0.7,0-1.5-0.1-2.2-0.2l-0.3-3c0.6,0.1,1.2,0.2,1.6,0.2c0.9,0,1.6-0.3,2-0.8&#10;&#9;&#9;&#9;&#9;c0.4-0.5,0.8-1.2,1-2L682.6,952.9z" style="fill: rgb(155, 133, 121);"/>
		</g>
	</g>
</svg>